<svg width="26" height="24" viewBox="0 0 26 24" fill="none" xmlns="http://www.w3.org/2000/svg">
<path d="M25.4729 4.31766L13.5708 0.0956236C13.203 -0.0318745 12.7975 -0.0318745 12.4297 0.0956236L0.527109 4.31766C0.372278 4.37128 0.238858 4.46724 0.144671 4.59271C0.0504831 4.71818 1.24045e-05 4.86719 0 5.01984L0 6.75C0 7.16437 0.363594 7.5 0.8125 7.5H25.1875C25.6364 7.5 26 7.16437 26 6.75V5.01984C26 4.70719 25.7898 4.42734 25.4729 4.31766ZM3.25 9V16.5H2.4375C1.98859 16.5 1.625 16.8356 1.625 17.25V19.5H24.375V17.25C24.375 16.8356 24.0114 16.5 23.5625 16.5H22.75V9H19.5V16.5H14.625V9H11.375V16.5H6.5V9H3.25ZM25.1875 21H0.8125C0.363594 21 0 21.3356 0 21.75V23.25C0 23.6644 0.363594 24 0.8125 24H25.1875C25.6364 24 26 23.6644 26 23.25V21.75C26 21.3356 25.6364 21 25.1875 21Z" fill="black"/>
</svg>
