<svg width="31" height="21" viewBox="0 0 31 21" fill="none" xmlns="http://www.w3.org/2000/svg">
<path d="M22.3889 7.5C22.3889 3.35625 17.3783 0 11.1944 0C5.01059 0 0 3.35625 0 7.5C0 9.10781 0.758854 10.5891 2.04514 11.8125C1.32396 13.2281 0.134549 14.3531 0.118403 14.3672C0 14.475 -0.0322917 14.6344 0.0376736 14.775C0.107639 14.9156 0.258333 15 0.430556 15C2.40035 15 4.03108 14.4234 5.20434 13.8281C6.93733 14.5641 8.98785 15 11.1944 15C17.3783 15 22.3889 11.6438 22.3889 7.5ZM28.9549 17.8125C30.2411 16.5938 31 15.1078 31 13.5C31 10.3641 28.1207 7.67812 24.0411 6.55781C24.0896 6.86719 24.1111 7.18125 24.1111 7.5C24.1111 12.4641 18.3148 16.5 11.1944 16.5C10.6132 16.5 10.0481 16.4625 9.48837 16.4109C11.1837 19.1063 15.1663 21 19.8056 21C22.0122 21 24.0627 20.5688 25.7957 19.8281C26.9689 20.4234 28.5997 21 30.5694 21C30.7417 21 30.8977 20.9109 30.9623 20.775C31.0323 20.6391 31 20.4797 30.8816 20.3672C30.8654 20.3531 29.676 19.2328 28.9549 17.8125Z" fill="black"/>
</svg>
