<svg width="24" height="24" viewBox="0 0 24 24" fill="none" xmlns="http://www.w3.org/2000/svg">
<path d="M20.2113 3H15.3991C15.3991 1.34531 13.6727 0 11.5493 0C9.42591 0 7.69953 1.34531 7.69953 3H2.88732C1.29328 3 0 4.00781 0 5.25V21.75C0 22.9922 1.29328 24 2.88732 24H20.2113C21.8053 24 23.0986 22.9922 23.0986 21.75V5.25C23.0986 4.00781 21.8053 3 20.2113 3ZM5.77465 19.875C4.97462 19.875 4.33099 19.3734 4.33099 18.75C4.33099 18.1266 4.97462 17.625 5.77465 17.625C6.57468 17.625 7.21831 18.1266 7.21831 18.75C7.21831 19.3734 6.57468 19.875 5.77465 19.875ZM5.77465 15.375C4.97462 15.375 4.33099 14.8734 4.33099 14.25C4.33099 13.6266 4.97462 13.125 5.77465 13.125C6.57468 13.125 7.21831 13.6266 7.21831 14.25C7.21831 14.8734 6.57468 15.375 5.77465 15.375ZM5.77465 10.875C4.97462 10.875 4.33099 10.3734 4.33099 9.75C4.33099 9.12656 4.97462 8.625 5.77465 8.625C6.57468 8.625 7.21831 9.12656 7.21831 9.75C7.21831 10.3734 6.57468 10.875 5.77465 10.875ZM11.5493 1.875C12.3493 1.875 12.993 2.37656 12.993 3C12.993 3.62344 12.3493 4.125 11.5493 4.125C10.7493 4.125 10.1056 3.62344 10.1056 3C10.1056 2.37656 10.7493 1.875 11.5493 1.875ZM19.2488 19.125C19.2488 19.3312 19.0323 19.5 18.7676 19.5H10.1056C9.84096 19.5 9.62441 19.3312 9.62441 19.125V18.375C9.62441 18.1688 9.84096 18 10.1056 18H18.7676C19.0323 18 19.2488 18.1688 19.2488 18.375V19.125ZM19.2488 14.625C19.2488 14.8313 19.0323 15 18.7676 15H10.1056C9.84096 15 9.62441 14.8313 9.62441 14.625V13.875C9.62441 13.6687 9.84096 13.5 10.1056 13.5H18.7676C19.0323 13.5 19.2488 13.6687 19.2488 13.875V14.625ZM19.2488 10.125C19.2488 10.3313 19.0323 10.5 18.7676 10.5H10.1056C9.84096 10.5 9.62441 10.3313 9.62441 10.125V9.375C9.62441 9.16875 9.84096 9 10.1056 9H18.7676C19.0323 9 19.2488 9.16875 19.2488 9.375V10.125Z" fill="black"/>
</svg>
