<svg width="20" height="24" viewBox="0 0 20 24" fill="none" xmlns="http://www.w3.org/2000/svg">
<path d="M19.0137 0H18.702V1.25C18.702 1.6625 18.4916 2 18.2344 2H16.6759C16.4188 2 16.2084 1.6625 16.2084 1.25V0H3.7404V1.25C3.7404 1.6625 3.53 2 3.27285 2H1.71435C1.4572 2 1.2468 1.6625 1.2468 1.25V0H0.935099C0.416898 0 0 0.66875 0 1.5V22.5C0 23.3312 0.416898 24 0.935099 24H1.2468V22.75C1.2468 22.3375 1.4572 22 1.71435 22H3.27285C3.53 22 3.7404 22.3375 3.7404 22.75V24H16.2084V22.75C16.2084 22.3375 16.4188 22 16.6759 22H18.2344C18.4916 22 18.702 22.3375 18.702 22.75V24H19.0137C19.5319 24 19.9488 23.3312 19.9488 22.5V1.5C19.9488 0.66875 19.5319 0 19.0137 0ZM3.7404 19.25C3.7404 19.6625 3.53 20 3.27285 20H1.71435C1.4572 20 1.2468 19.6625 1.2468 19.25V16.75C1.2468 16.3375 1.4572 16 1.71435 16H3.27285C3.53 16 3.7404 16.3375 3.7404 16.75V19.25ZM3.7404 13.25C3.7404 13.6625 3.53 14 3.27285 14H1.71435C1.4572 14 1.2468 13.6625 1.2468 13.25V10.75C1.2468 10.3375 1.4572 10 1.71435 10H3.27285C3.53 10 3.7404 10.3375 3.7404 10.75V13.25ZM3.7404 7.25C3.7404 7.6625 3.53 8 3.27285 8H1.71435C1.4572 8 1.2468 7.6625 1.2468 7.25V4.75C1.2468 4.3375 1.4572 4 1.71435 4H3.27285C3.53 4 3.7404 4.3375 3.7404 4.75V7.25ZM14.3382 20.25C14.3382 20.6625 14.1278 21 13.8706 21H6.07814C5.82099 21 5.61059 20.6625 5.61059 20.25V14.25C5.61059 13.8375 5.82099 13.5 6.07814 13.5H13.8706C14.1278 13.5 14.3382 13.8375 14.3382 14.25V20.25ZM14.3382 9.75C14.3382 10.1625 14.1278 10.5 13.8706 10.5H6.07814C5.82099 10.5 5.61059 10.1625 5.61059 9.75V3.75C5.61059 3.3375 5.82099 3 6.07814 3H13.8706C14.1278 3 14.3382 3.3375 14.3382 3.75V9.75ZM18.702 19.25C18.702 19.6625 18.4916 20 18.2344 20H16.6759C16.4188 20 16.2084 19.6625 16.2084 19.25V16.75C16.2084 16.3375 16.4188 16 16.6759 16H18.2344C18.4916 16 18.702 16.3375 18.702 16.75V19.25ZM18.702 13.25C18.702 13.6625 18.4916 14 18.2344 14H16.6759C16.4188 14 16.2084 13.6625 16.2084 13.25V10.75C16.2084 10.3375 16.4188 10 16.6759 10H18.2344C18.4916 10 18.702 10.3375 18.702 10.75V13.25ZM18.702 7.25C18.702 7.6625 18.4916 8 18.2344 8H16.6759C16.4188 8 16.2084 7.6625 16.2084 7.25V4.75C16.2084 4.3375 16.4188 4 16.6759 4H18.2344C18.4916 4 18.702 4.3375 18.702 4.75V7.25Z" fill="black"/>
</svg>
