<svg width="30" height="25" viewBox="0 0 30 25" fill="none" xmlns="http://www.w3.org/2000/svg">
<path d="M14.0501 12.232C14.4074 12.5933 14.9892 12.5933 15.3515 12.232L20.9093 6.65605C22.5221 5.03502 22.4302 2.34959 20.6235 0.855508C19.0516 -0.448148 16.7091 -0.213782 15.2699 1.23147L14.6983 1.80273L14.1318 1.23635C12.6926 -0.213783 10.35 -0.448148 8.77815 0.855508C6.97658 2.34959 6.87962 5.03502 8.49235 6.65605L14.0501 12.232ZM28.8505 16.0209C28.2483 15.4984 27.3092 15.5326 26.6764 16.0209L21.9607 19.6291C21.384 20.0734 20.6644 20.3127 19.9192 20.3127H13.8817C13.4326 20.3127 13.0651 19.9611 13.0651 19.5315C13.0651 19.1018 13.4326 18.7503 13.8817 18.7503H17.8778C18.6893 18.7503 19.4446 18.2181 19.5773 17.4515C19.7457 16.475 18.9598 15.6254 17.9646 15.6254H9.79886C8.4209 15.6254 7.08886 16.0795 6.01711 16.9095L3.64395 18.7503H0.816572C0.367457 18.7503 0 19.1018 0 19.5315V24.2188C0 24.6485 0.367457 25 0.816572 25H19.0261C19.7661 25 20.4857 24.7608 21.0676 24.3164L28.7842 18.4085C29.5599 17.8177 29.6211 16.6849 28.8505 16.0209Z" fill="black"/>
</svg>
