<svg width="20" height="26" viewBox="0 0 20 26" fill="none" xmlns="http://www.w3.org/2000/svg">
<path d="M4.20553 23.98C3.98318 24.8514 4.52451 25.7334 5.41495 25.9507C5.55054 25.9843 5.68613 25.999 5.82017 25.999C6.56463 25.999 7.24207 25.5064 7.43169 24.7686L8.74294 19.6413L6.00096 16.9611L4.20553 23.98ZM4.97908 14.0209L7.11739 5.94129C7.23116 5.51372 6.95426 5.08056 6.49813 4.97342C4.21852 4.43921 1.90825 5.73868 1.33835 7.87653L0.0255447 12.8596C-0.0882281 13.2872 0.188671 13.7203 0.644802 13.8275L3.94681 14.6019C4.40346 14.7085 4.86531 14.4485 4.97908 14.0209ZM19.1181 8.12484H18.2869C17.8276 8.12484 17.4557 8.48843 17.4557 8.93733V9.74981H15.6504L13.2201 7.37431C12.6439 6.81014 11.8766 6.49987 11.061 6.49987C9.65727 6.49987 8.43902 7.42915 8.09822 8.76061L6.6997 14.2307C6.63014 14.5029 6.63387 14.7881 6.71052 15.0586C6.78718 15.329 6.93415 15.5754 7.13713 15.7739L11.6371 20.1725V24.3745C11.6371 25.2718 12.3816 25.9995 13.2996 25.9995C14.2175 25.9995 14.962 25.2718 14.962 24.3745V20.1725C14.962 19.3046 14.616 18.4886 13.9879 17.8747L11.5556 15.4971C11.5634 15.4717 11.581 15.4519 11.5878 15.4255L12.6211 11.3849L13.7863 12.5239C14.0981 12.8286 14.5209 13.0003 14.9615 13.0003H17.4551V25.1875C17.4551 25.6364 17.8271 26 18.2863 26H19.1176C19.5768 26 19.9488 25.6364 19.9488 25.1875V8.93733C19.9493 8.48843 19.5773 8.12484 19.1181 8.12484ZM12.4683 4.8749C13.8456 4.8749 14.962 3.78364 14.962 2.43745C14.962 1.09127 13.8456 0 12.4683 0C11.0911 0 9.9747 1.09127 9.9747 2.43745C9.9747 3.78364 11.0911 4.8749 12.4683 4.8749Z" fill="black"/>
</svg>
