<svg width="27" height="21" viewBox="0 0 27 21" fill="none" xmlns="http://www.w3.org/2000/svg">
<path d="M25.1547 0H4.01017C3.40614 0 2.91649 0.587617 2.91649 1.3125V1.75H1.09368C0.489651 1.75 0 2.33762 0 3.0625V17.9375C0 19.6289 1.14253 21 2.55193 21H24.061C25.2691 21 26.2484 19.8248 26.2484 18.375V1.3125C26.2484 0.587617 25.7587 0 25.1547 0ZM2.55193 18.375C2.45524 18.375 2.36251 18.3289 2.29414 18.2469C2.22578 18.1648 2.18737 18.0535 2.18737 17.9375V4.375H2.91649V17.9375C2.91649 18.0535 2.87808 18.1648 2.80971 18.2469C2.74134 18.3289 2.64862 18.375 2.55193 18.375ZM13.3065 17.5H6.37982C6.07783 17.5 5.83298 17.2062 5.83298 16.8438V16.4062C5.83298 16.0438 6.07783 15.75 6.37982 15.75H13.3065C13.6085 15.75 13.8533 16.0438 13.8533 16.4062V16.8438C13.8533 17.2062 13.6085 17.5 13.3065 17.5ZM22.7851 17.5H15.8584C15.5564 17.5 15.3116 17.2062 15.3116 16.8438V16.4062C15.3116 16.0438 15.5564 15.75 15.8584 15.75H22.7851C23.0871 15.75 23.3319 16.0438 23.3319 16.4062V16.8438C23.3319 17.2062 23.0871 17.5 22.7851 17.5ZM13.3065 12.25H6.37982C6.07783 12.25 5.83298 11.9562 5.83298 11.5938V11.1562C5.83298 10.7938 6.07783 10.5 6.37982 10.5H13.3065C13.6085 10.5 13.8533 10.7938 13.8533 11.1562V11.5938C13.8533 11.9562 13.6085 12.25 13.3065 12.25ZM22.7851 12.25H15.8584C15.5564 12.25 15.3116 11.9562 15.3116 11.5938V11.1562C15.3116 10.7938 15.5564 10.5 15.8584 10.5H22.7851C23.0871 10.5 23.3319 10.7938 23.3319 11.1562V11.5938C23.3319 11.9562 23.0871 12.25 22.7851 12.25ZM22.7851 7H6.37982C6.07783 7 5.83298 6.70616 5.83298 6.34375V4.15625C5.83298 3.79384 6.07783 3.5 6.37982 3.5H22.7851C23.0871 3.5 23.3319 3.79384 23.3319 4.15625V6.34375C23.3319 6.70616 23.0871 7 22.7851 7Z" fill="black"/>
</svg>
