<svg width="30" height="28" viewBox="0 0 30 28" fill="none" xmlns="http://www.w3.org/2000/svg">
<path d="M26.7857 0H3.21429C2.3618 0 1.54424 0.316071 0.941442 0.87868C0.338647 1.44129 0 2.20435 0 3L0 25C0 25.7956 0.338647 26.5587 0.941442 27.1213C1.54424 27.6839 2.3618 28 3.21429 28H12.4051V18.4806H8.18638V14H12.4051V10.585C12.4051 6.70062 14.8828 4.555 18.6777 4.555C20.4951 4.555 22.3955 4.8575 22.3955 4.8575V8.67H20.3016C18.2384 8.67 17.5949 9.865 17.5949 11.0906V14H22.2007L21.4641 18.4806H17.5949V28H26.7857C27.6382 28 28.4558 27.6839 29.0586 27.1213C29.6614 26.5587 30 25.7956 30 25V3C30 2.20435 29.6614 1.44129 29.0586 0.87868C28.4558 0.316071 27.6382 0 26.7857 0Z" fill="black"/>
</svg>
