<svg width="318" height="49" viewBox="0 0 318 49" fill="none" xmlns="http://www.w3.org/2000/svg">
<g filter="url(#filter0_d_12_41)">
<path d="M4 0H303.104C318.745 16.0115 316.475 24.9886 303.104 41H4V0Z" fill="#7093DD"/>
</g>
<path d="M283.58 31.7649L283.579 31.7639L282.113 30.11C281.587 29.5162 281.588 28.5469 282.112 27.9617L282.113 27.9607L288.364 20.9059L288.511 20.7401L288.364 20.5744L282.113 13.5196C281.587 12.9258 281.588 11.9564 282.112 11.3713L282.114 11.369L283.573 9.70112C284.083 9.12548 284.892 9.12721 285.395 9.70072L285.395 9.70072L285.396 9.70171L294.214 19.6545L294.215 19.6555C294.746 20.2486 294.746 21.218 294.221 21.8111L285.403 31.7639C284.892 32.3402 284.083 32.3386 283.58 31.7649Z" fill="#00226B" stroke="black" stroke-width="0.5"/>
<defs>
<filter id="filter0_d_12_41" x="0" y="0" width="318" height="49" filterUnits="userSpaceOnUse" color-interpolation-filters="sRGB">
<feFlood flood-opacity="0" result="BackgroundImageFix"/>
<feColorMatrix in="SourceAlpha" type="matrix" values="0 0 0 0 0 0 0 0 0 0 0 0 0 0 0 0 0 0 127 0" result="hardAlpha"/>
<feOffset dy="4"/>
<feGaussianBlur stdDeviation="2"/>
<feComposite in2="hardAlpha" operator="out"/>
<feColorMatrix type="matrix" values="0 0 0 0 0 0 0 0 0 0 0 0 0 0 0 0 0 0 0.25 0"/>
<feBlend mode="normal" in2="BackgroundImageFix" result="effect1_dropShadow_12_41"/>
<feBlend mode="normal" in="SourceGraphic" in2="effect1_dropShadow_12_41" result="shape"/>
</filter>
</defs>
</svg>
