<svg width="14" height="24" viewBox="0 0 14 24" fill="none" xmlns="http://www.w3.org/2000/svg">
<path d="M2.1105 22.7449L2.10962 22.744L0.64424 21.09C0.118135 20.4962 0.119332 19.5269 0.643359 18.9417L0.64424 18.9407L6.89478 11.8859L7.04167 11.7202L6.89478 11.5544L0.64424 4.49959C0.118135 3.90579 0.119333 2.93643 0.643357 2.35127L0.645325 2.34905L2.10366 0.681131C2.61423 0.105489 3.42336 0.107224 3.92608 0.68073L3.92607 0.680732L3.92695 0.681725L12.7451 10.6345L12.746 10.6355C13.2771 11.2286 13.2772 12.198 12.7516 12.7912L3.93344 22.744C3.42289 23.3202 2.61339 23.3187 2.1105 22.7449Z" fill="black" stroke="black" stroke-width="0.5"/>
</svg>
